<?xml version="1.0" encoding="UTF-8"?>
<svg width="32" height="32" viewBox="0 0 32 32" fill="none" xmlns="http://www.w3.org/2000/svg">
  <path fill="#2F81F7" d="M0 8a8 8 0 0 1 8-8h16a8 8 0 0 1 8 8v16a8 8 0 0 1-8 8H8a8 8 0 0 1-8-8V8z"/>
  <path fill="#FFF" d="M16 20a4 4 0 1 0 0-8 4 4 0 0 0 0 8z"/>
  <circle cx="8" cy="12" r="2" fill="#FFF"/>
  <circle cx="24" cy="12" r="2" fill="#FFF"/>
  <circle cx="12" cy="24" r="2" fill="#FFF"/>
  <circle cx="20" cy="24" r="2" fill="#FFF"/>
  <path stroke="#FFF" stroke-width="1.5" d="M9.5 13.5l4.5 2M22.5 13.5l-4.5 2M13.5 22.5l2-4.5M18.5 22.5l-2-4.5"/>
</svg> 